<?xml version="1.0" encoding="UTF-8" standalone="no"?>
<!-- Created with Inkscape (http://www.inkscape.org/) -->

<svg
   xmlns:dc="http://purl.org/dc/elements/1.1/"
   xmlns:cc="http://creativecommons.org/ns#"
   xmlns:rdf="http://www.w3.org/1999/02/22-rdf-syntax-ns#"
   xmlns:svg="http://www.w3.org/2000/svg"
   xmlns="http://www.w3.org/2000/svg"
   xmlns:sodipodi="http://sodipodi.sourceforge.net/DTD/sodipodi-0.dtd"
   xmlns:inkscape="http://www.inkscape.org/namespaces/inkscape"
   width="202.88193mm"
   height="177.13773mm"
   viewBox="0 0 202.88193 177.13773"
   version="1.1"
   id="svg6595"
   inkscape:version="0.92.4 (5da689c313, 2019-01-14)"
   sodipodi:docname="layer-5-right.svg">
  <defs
     id="defs6589" />
  <sodipodi:namedview
     id="base"
     pagecolor="#ffffff"
     bordercolor="#666666"
     borderopacity="1.0"
     inkscape:pageopacity="0.0"
     inkscape:pageshadow="2"
     inkscape:zoom="1.4142136"
     inkscape:cx="762.34187"
     inkscape:cy="403.59929"
     inkscape:document-units="mm"
     inkscape:current-layer="layer1"
     showgrid="false"
     inkscape:window-width="3840"
     inkscape:window-height="2109"
     inkscape:window-x="-14"
     inkscape:window-y="-14"
     inkscape:window-maximized="1"
     inkscape:measure-start="2156.5,1228"
     inkscape:measure-end="2157,1228.5" />
  <metadata
     id="metadata6592">
    <rdf:RDF>
      <cc:Work
         rdf:about="">
        <dc:format>image/svg+xml</dc:format>
        <dc:type
           rdf:resource="http://purl.org/dc/dcmitype/StillImage" />
        <dc:title></dc:title>
      </cc:Work>
    </rdf:RDF>
  </metadata>
  <g
     inkscape:label="Layer 1"
     inkscape:groupmode="layer"
     id="layer1"
     transform="translate(-43.701928,-57.693114)"
     style="display:inline">
    <path
       inkscape:connector-curvature="0"
       d="m 48.375308,171.64263 a 1.5,1.5 0 1 1 3,0 1.5,1.5 0 1 1 -3,0 z"
       style="fill:none;fill-opacity:1;stroke:#ff0000;stroke-width:0.30000001;stroke-miterlimit:4;stroke-dasharray:none;stroke-opacity:1"
       id="path17676" />
    <path
       inkscape:connector-curvature="0"
       d="m 158.26396,191.82811 a 1.5,1.5 0 1 1 3,0 1.5,1.5 0 1 1 -3,0 z"
       style="fill:none;fill-opacity:1;stroke:#ff0000;stroke-width:0.30000001;stroke-miterlimit:4;stroke-dasharray:none;stroke-opacity:1"
       id="path17678" />
    <path
       inkscape:connector-curvature="0"
       d="m 238.66997,188.42174 a 1.4999999,1.4999999 0 1 1 2.99999,0 1.4999999,1.4999999 0 1 1 -2.99999,0 z"
       style="fill:none;fill-opacity:1;stroke:#ff0000;stroke-width:0.30000001;stroke-miterlimit:4;stroke-dasharray:none;stroke-opacity:1"
       id="path17680" />
    <path
       inkscape:connector-curvature="0"
       d="M 85.347043,64.843113 V 143.73181"
       style="fill:none;fill-opacity:1;stroke:#ff0000;stroke-width:0.30000001;stroke-miterlimit:4;stroke-dasharray:none;stroke-opacity:1"
       id="path17682" />
    <path
       inkscape:connector-curvature="0"
       d="M 239.43384,57.843114 H 92.347042"
       style="fill:none;fill-opacity:1;stroke:#ff0000;stroke-width:0.30000001;stroke-miterlimit:4;stroke-dasharray:none;stroke-opacity:1"
       id="path17684" />
    <path
       inkscape:connector-curvature="0"
       d="M 81.305162,150.07606 47.894928,165.65418"
       style="fill:none;fill-opacity:1;stroke:#ff0000;stroke-width:0.30000001;stroke-miterlimit:4;stroke-dasharray:none;stroke-opacity:1"
       id="path17686" />
    <path
       inkscape:connector-curvature="0"
       d="m 238.66996,64.10699 a 1.5000006,1.5000006 0 1 1 3,0 1.5000006,1.5000006 0 1 1 -3,0 z"
       style="fill:none;fill-opacity:1;stroke:#ff0000;stroke-width:0.30000001;stroke-miterlimit:4;stroke-dasharray:none;stroke-opacity:1"
       id="path17688" />
    <path
       inkscape:connector-curvature="0"
       d="m 143.60054,62.288114 a 1.5,1.5 0 1 1 3,0 1.5,1.5 0 1 1 -3,0 z"
       style="fill:none;fill-opacity:1;stroke:#ff0000;stroke-width:0.30000001;stroke-miterlimit:4;stroke-dasharray:none;stroke-opacity:1"
       id="path17690" />
    <path
       inkscape:connector-curvature="0"
       d="m 90.117268,64.10699 a 1.5,1.5 0 1 1 3,0 1.5,1.5 0 1 1 -3,0 z"
       style="fill:none;fill-opacity:1;stroke:#ff0000;stroke-width:0.30000001;stroke-miterlimit:4;stroke-dasharray:none;stroke-opacity:1"
       id="path17692" />
    <path
       inkscape:connector-curvature="0"
       d="m 239.43384,57.843114 a 6.9999999,6.9999999 0 0 1 7,6.999999"
       style="fill:none;fill-opacity:1;stroke:#ff0000;stroke-width:0.30000001;stroke-miterlimit:4;stroke-dasharray:none;stroke-opacity:1"
       id="path17694" />
    <path
       inkscape:connector-curvature="0"
       d="m 85.347043,64.843113 a 6.9999999,6.9999999 0 0 1 6.999999,-6.999999"
       style="fill:none;fill-opacity:1;stroke:#ff0000;stroke-width:0.30000001;stroke-miterlimit:4;stroke-dasharray:none;stroke-opacity:1"
       id="path17696" />
    <path
       inkscape:connector-curvature="0"
       d="m 44.508883,174.95674 a 6.9999999,6.9999999 0 0 1 3.386045,-9.30256"
       style="fill:none;fill-opacity:1;stroke:#ff0000;stroke-width:0.30000001;stroke-miterlimit:4;stroke-dasharray:none;stroke-opacity:1"
       id="path17698" />
    <path
       inkscape:connector-curvature="0"
       d="m 85.347043,143.73181 a 6.9999999,6.9999999 0 0 1 -4.041881,6.34425"
       style="fill:none;fill-opacity:1;stroke:#ff0000;stroke-width:0.30000001;stroke-miterlimit:4;stroke-dasharray:none;stroke-opacity:1"
       id="path17700" />
    <path
       inkscape:connector-curvature="0"
       d="m 70.433843,225.5411 v 0"
       style="fill:none;fill-opacity:1;stroke:#ff0000;stroke-width:0.30000001;stroke-miterlimit:4;stroke-dasharray:none;stroke-opacity:1"
       id="path17702" />
    <path
       inkscape:connector-curvature="0"
       d="m 70.433843,225.5411 v 0"
       style="fill:none;fill-opacity:1;stroke:#ff0000;stroke-width:0.30000001;stroke-miterlimit:4;stroke-dasharray:none;stroke-opacity:1"
       id="path17704" />
    <path
       inkscape:connector-curvature="0"
       d="m 110.12604,84.456914 a 1.5,1.5 0 1 1 3,0 1.5,1.5 0 1 1 -3,0 z"
       style="fill:none;fill-opacity:1;stroke:#ff0000;stroke-width:0.30000001;stroke-miterlimit:4;stroke-dasharray:none;stroke-opacity:1"
       id="path17706" />
    <path
       inkscape:connector-curvature="0"
       d="m 220.12604,84.456914 a 1.5000009,1.5000009 0 1 1 3,0 1.5000009,1.5000009 0 1 1 -3,0 z"
       style="fill:none;fill-opacity:1;stroke:#ff0000;stroke-width:0.30000001;stroke-miterlimit:4;stroke-dasharray:none;stroke-opacity:1"
       id="path17708" />
    <path
       d="m 162.30105,196.27311 a 6.9999999,6.9999999 0 0 0 -2.95782,0.65561"
       style="fill:none;stroke:#ff0000;stroke-width:0.30000001;stroke-linecap:round;stroke-miterlimit:4;stroke-dasharray:none"
       id="path1647"
       inkscape:connector-curvature="0" />
    <path
       d="m 77.961746,228.65871 a 1.500001,1.500001 0 1 0 -3.000002,0 1.500001,1.500001 0 1 0 3.000002,0 z"
       style="fill:none;stroke:#ff0000;stroke-width:0.30000001;stroke-linecap:round;stroke-miterlimit:4;stroke-dasharray:none"
       id="path1649"
       inkscape:connector-curvature="0" />
    <path
       d="M 246.43384,189.27311 V 64.843113"
       style="fill:none;stroke:#ff0000;stroke-width:0.30000001;stroke-linecap:round;stroke-miterlimit:4;stroke-dasharray:none"
       id="path1657"
       inkscape:connector-curvature="0" />
    <path
       d="M 44.508883,174.95674 70.47327,230.63802"
       style="fill:none;stroke:#ff0000;stroke-width:0.30000001;stroke-linecap:round;stroke-miterlimit:4;stroke-dasharray:none"
       id="path1659"
       inkscape:connector-curvature="0" />
    <path
       d="M 79.775253,234.02411 159.34323,196.92872"
       style="fill:none;stroke:#ff0000;stroke-width:0.30000001;stroke-linecap:round;stroke-miterlimit:4;stroke-dasharray:none"
       id="path1661"
       inkscape:connector-curvature="0" />
    <path
       d="m 162.30105,196.27311 h 77.13279"
       style="fill:none;stroke:#ff0000;stroke-width:0.30000001;stroke-linecap:round;stroke-miterlimit:4;stroke-dasharray:none"
       id="path1667"
       inkscape:connector-curvature="0" />
    <path
       d="m 239.43384,196.27311 a 6.9999999,6.9999999 0 0 0 7,-7"
       style="fill:none;stroke:#ff0000;stroke-width:0.30000001;stroke-linecap:round;stroke-miterlimit:4;stroke-dasharray:none"
       id="path1677"
       inkscape:connector-curvature="0" />
    <path
       d="m 70.47327,230.63802 a 6.9999999,6.9999999 0 0 0 9.301983,3.38609"
       style="fill:none;stroke:#ff0000;stroke-width:0.30000001;stroke-linecap:round;stroke-miterlimit:4;stroke-dasharray:none"
       id="path1679"
       inkscape:connector-curvature="0" />
  </g>
  <g
     inkscape:groupmode="layer"
     id="layer2"
     inkscape:label="test"
     style="display:inline"
     transform="translate(-43.701928,-160.69311)" />
</svg>
