<?xml version="1.0" encoding="UTF-8" standalone="no"?>
<!-- Created with Inkscape (http://www.inkscape.org/) -->

<svg
   xmlns:dc="http://purl.org/dc/elements/1.1/"
   xmlns:cc="http://creativecommons.org/ns#"
   xmlns:rdf="http://www.w3.org/1999/02/22-rdf-syntax-ns#"
   xmlns:svg="http://www.w3.org/2000/svg"
   xmlns="http://www.w3.org/2000/svg"
   xmlns:sodipodi="http://sodipodi.sourceforge.net/DTD/sodipodi-0.dtd"
   xmlns:inkscape="http://www.inkscape.org/namespaces/inkscape"
   width="202.88191mm"
   height="177.13773mm"
   viewBox="0 0 202.88191 177.13773"
   version="1.1"
   id="svg6595"
   inkscape:version="0.92.4 (5da689c313, 2019-01-14)"
   sodipodi:docname="layer-5-left.svg">
  <defs
     id="defs6589" />
  <sodipodi:namedview
     id="base"
     pagecolor="#ffffff"
     bordercolor="#666666"
     borderopacity="1.0"
     inkscape:pageopacity="0.0"
     inkscape:pageshadow="2"
     inkscape:zoom="1.4142136"
     inkscape:cx="1106.5107"
     inkscape:cy="152.42097"
     inkscape:document-units="mm"
     inkscape:current-layer="layer1"
     showgrid="false"
     inkscape:window-width="3840"
     inkscape:window-height="2109"
     inkscape:window-x="-14"
     inkscape:window-y="-14"
     inkscape:window-maximized="1"
     inkscape:measure-start="2156.5,1228"
     inkscape:measure-end="2157,1228.5" />
  <metadata
     id="metadata6592">
    <rdf:RDF>
      <cc:Work
         rdf:about="">
        <dc:format>image/svg+xml</dc:format>
        <dc:type
           rdf:resource="http://purl.org/dc/dcmitype/StillImage" />
        <dc:title></dc:title>
      </cc:Work>
    </rdf:RDF>
  </metadata>
  <g
     inkscape:label="Layer 1"
     inkscape:groupmode="layer"
     id="layer1"
     transform="translate(-20.26733,175.3443)"
     style="display:inline">
    <path
       inkscape:connector-curvature="0"
       d="m 25.18121,-168.93043 a 1.5,1.5 0 1 1 3,0 1.5,1.5 0 1 1 -3,0 z"
       style="fill:none;fill-opacity:1;stroke:#ff0000;stroke-width:0.30000001;stroke-miterlimit:4;stroke-dasharray:none;stroke-opacity:1"
       id="path7159" />
    <path
       inkscape:connector-curvature="0"
       d="m 120.25063,-170.7493 a 1.5,1.5 0 1 1 3,0 1.5,1.5 0 1 1 -3,0 z"
       style="fill:none;fill-opacity:1;stroke:#ff0000;stroke-width:0.30000001;stroke-miterlimit:4;stroke-dasharray:none;stroke-opacity:1"
       id="path7161" />
    <path
       inkscape:connector-curvature="0"
       d="m 173.7339,-168.93043 a 1.5,1.5 0 1 1 3,0 1.5,1.5 0 1 1 -3,0 z"
       style="fill:none;fill-opacity:1;stroke:#ff0000;stroke-width:0.30000001;stroke-miterlimit:4;stroke-dasharray:none;stroke-opacity:1"
       id="path7163" />
    <path
       inkscape:connector-curvature="0"
       d="m 20.41733,-168.1943 a 7,7 0 0 1 7,-7"
       style="fill:none;fill-opacity:1;stroke:#ff0000;stroke-width:0.30000001;stroke-miterlimit:4;stroke-dasharray:none;stroke-opacity:1"
       id="path7165" />
    <path
       inkscape:connector-curvature="0"
       d="m 174.50413,-175.1943 a 7,7 0 0 1 7,7"
       style="fill:none;fill-opacity:1;stroke:#ff0000;stroke-width:0.30000001;stroke-miterlimit:4;stroke-dasharray:none;stroke-opacity:1"
       id="path7167" />
    <path
       inkscape:connector-curvature="0"
       d="m 218.95624,-67.38323 a 7,7 0 0 1 3.38605,9.30255"
       style="fill:none;fill-opacity:1;stroke:#ff0000;stroke-width:0.30000001;stroke-miterlimit:4;stroke-dasharray:none;stroke-opacity:1"
       id="path7169" />
    <path
       inkscape:connector-curvature="0"
       d="m 215.47586,-61.39479 a 1.5,1.5 0 1 1 3,0 1.5,1.5 0 1 1 -3,0 z"
       style="fill:none;fill-opacity:1;stroke:#ff0000;stroke-width:0.30000001;stroke-miterlimit:4;stroke-dasharray:none;stroke-opacity:1"
       id="path7171" />
    <path
       inkscape:connector-curvature="0"
       d="m 185.54601,-82.961351 a 7,7 0 0 1 -4.04188,-6.344254"
       style="fill:none;fill-opacity:1;stroke:#ff0000;stroke-width:0.30000001;stroke-miterlimit:4;stroke-dasharray:none;stroke-opacity:1"
       id="path7173" />
    <path
       inkscape:connector-curvature="0"
       d="m 105.58721,-41.2093 a 1.5,1.5 0 1 1 3,0 1.5,1.5 0 1 1 -3,0 z"
       style="fill:none;fill-opacity:1;stroke:#ff0000;stroke-width:0.30000001;stroke-miterlimit:4;stroke-dasharray:none;stroke-opacity:1"
       id="path7177" />
    <path
       inkscape:connector-curvature="0"
       d="m 25.18121,-44.61568 a 1.5,1.5 0 1 1 3,0 1.5,1.5 0 1 1 -3,0 z"
       style="fill:none;fill-opacity:1;stroke:#ff0000;stroke-width:0.30000001;stroke-miterlimit:4;stroke-dasharray:none;stroke-opacity:1"
       id="path7179" />
    <path
       inkscape:connector-curvature="0"
       d="m 196.41733,-7.4963 v 0"
       style="fill:none;fill-opacity:1;stroke:#ff0000;stroke-width:0.30000001;stroke-miterlimit:4;stroke-dasharray:none;stroke-opacity:1"
       id="path7181" />
    <path
       inkscape:connector-curvature="0"
       d="m 181.50413,-168.1943 v 78.888695"
       style="fill:none;fill-opacity:1;stroke:#ff0000;stroke-width:0.30000001;stroke-miterlimit:4;stroke-dasharray:none;stroke-opacity:1"
       id="path7183" />
    <path
       inkscape:connector-curvature="0"
       d="m 27.41733,-175.1943 h 147.0868"
       style="fill:none;fill-opacity:1;stroke:#ff0000;stroke-width:0.30000001;stroke-miterlimit:4;stroke-dasharray:none;stroke-opacity:1"
       id="path7187" />
    <path
       inkscape:connector-curvature="0"
       d="m 185.54601,-82.961351 33.41023,15.578121"
       style="fill:none;fill-opacity:1;stroke:#ff0000;stroke-width:0.30000001;stroke-miterlimit:4;stroke-dasharray:none;stroke-opacity:1"
       id="path7189" />
    <path
       inkscape:connector-curvature="0"
       d="m 153.72513,-148.5805 a 1.500001,1.500001 0 1 1 3,0 1.500001,1.500001 0 1 1 -3,0 z"
       style="fill:none;fill-opacity:1;stroke:#ff0000;stroke-width:0.30000001;stroke-miterlimit:4;stroke-dasharray:none;stroke-opacity:1"
       id="path7191" />
    <path
       inkscape:connector-curvature="0"
       d="m 43.72513,-148.5805 a 1.5,1.5 0 1 1 3,0 1.5,1.5 0 1 1 -3,0 z"
       style="fill:none;fill-opacity:1;stroke:#ff0000;stroke-width:0.30000001;stroke-miterlimit:4;stroke-dasharray:none;stroke-opacity:1"
       id="path7193" />
    <path
       d="m 104.55012,-36.764395 -77.13279,9.6e-5"
       style="fill:none;stroke:#ff0000;stroke-width:0.30000001;stroke-miterlimit:4;stroke-dasharray:none"
       id="path1579"
       inkscape:connector-curvature="0" />
    <path
       d="M 20.41733,-43.764299 V -168.1943"
       style="fill:none;stroke:#ff0000;stroke-width:0.30000001;stroke-miterlimit:4;stroke-dasharray:none"
       id="path1581"
       inkscape:connector-curvature="0" />
    <path
       d="M 187.07592,0.98669353 107.50794,-36.108691"
       style="fill:none;stroke:#ff0000;stroke-width:0.30000001;stroke-miterlimit:4;stroke-dasharray:none"
       id="path1585"
       inkscape:connector-curvature="0" />
    <path
       d="m 20.41733,-43.764299 a 6.9999999,6.9999999 0 0 0 7,7"
       style="fill:none;stroke:#ff0000;stroke-width:0.30000001;stroke-miterlimit:4;stroke-dasharray:none"
       id="path1615"
       inkscape:connector-curvature="0" />
    <path
       d="M 187.07592,0.98669353 A 6.9999999,6.9999999 0 0 0 196.3779,-2.399391"
       style="fill:none;stroke:#ff0000;stroke-width:0.30000001;stroke-miterlimit:4;stroke-dasharray:none"
       id="path1617"
       inkscape:connector-curvature="0" />
    <path
       d="m 107.50794,-36.108691 a 6.9999999,6.9999999 0 0 0 -2.95782,-0.655608"
       style="fill:none;stroke:#ff0000;stroke-width:0.30000001;stroke-miterlimit:4;stroke-dasharray:none"
       id="path1625"
       inkscape:connector-curvature="0" />
    <path
       d="m 191.88942,-4.3787045 a 1.5,1.5 0 1 0 -2.99999,0 1.5,1.5 0 1 0 2.99999,0 z"
       style="fill:none;stroke:#ff0000;stroke-width:0.30000001;stroke-miterlimit:4;stroke-dasharray:none"
       id="path1629"
       inkscape:connector-curvature="0" />
    <path
       d="M 222.34229,-58.080672 196.3779,-2.399391"
       style="fill:none;stroke:#ff0000;stroke-width:0.30000001;stroke-miterlimit:4;stroke-dasharray:none"
       id="path1635"
       inkscape:connector-curvature="0" />
  </g>
  <g
     inkscape:groupmode="layer"
     id="layer2"
     inkscape:label="test"
     style="display:inline"
     transform="translate(-20.26733,72.3443)" />
</svg>
